Coordinates
version=1
nRows=21
nColumns=12
inDegrees=yes

Units are S.I. units (second, meters, Newtons, ...)
Angles are in degrees

endheader
time	SC_y	SC_z	SC_x	AC_y	AC_z	AC_x	GH_y	GH_z	GH_yy	EL_x	PS_y
       0.0               -19.0          5.408          10.72          46.55          -2.52         -14.02         -12.98          5.114         -141.2          67.69          73.04
   0.02744               -19.0          5.411          10.73          46.54         -2.523         -14.01         -12.96          5.121         -141.2          67.69          73.04
   0.05487              -19.01          5.413          10.73          46.54         -2.525         -14.01         -12.93          5.128         -141.2          67.69          73.03
   0.08231              -19.01          5.416          10.73          46.54         -2.528         -14.01          -12.9          5.136         -141.2           67.7          73.02
    0.1097              -19.02          5.419          10.73          46.54         -2.531          -14.0         -12.88          5.145         -141.1           67.7          73.01
    0.1372              -19.02          5.422          10.73          46.54         -2.534          -14.0         -12.84          5.154         -141.1           67.7           73.0
    0.1646              -19.03          5.425          10.74          46.53         -2.537          -14.0         -12.81          5.164         -141.1          67.71          72.99
    0.1921              -19.03          5.429          10.74          46.53         -2.541         -13.99         -12.77          5.174         -141.0          67.71          72.97
    0.2195              -19.04          5.432          10.74          46.53         -2.545         -13.99         -12.73          5.185         -141.0          67.72          72.96
    0.2469              -19.05          5.436          10.74          46.53         -2.549         -13.98         -12.69          5.197         -140.9          67.73          72.95
    0.2744              -19.06          5.441          10.75          46.52         -2.553         -13.98         -12.65           5.21         -140.9          67.73          72.93
    0.3018              -19.06          5.445          10.75          46.52         -2.558         -13.97          -12.6          5.224         -140.8          67.74          72.92
    0.3292              -19.07           5.45          10.75          46.52         -2.563         -13.97         -12.55          5.239         -140.8          67.75           72.9
    0.3567              -19.08          5.456          10.76          46.51         -2.568         -13.96         -12.49          5.255         -140.7          67.75          72.88
    0.3841              -19.09          5.462          10.76          46.51         -2.574         -13.95         -12.43          5.272         -140.6          67.76          72.86
    0.4115               -19.1          5.468          10.77           46.5          -2.58         -13.95         -12.37          5.291         -140.6          67.77          72.84
     0.439              -19.12          5.475          10.77           46.5         -2.587         -13.94         -12.29          5.312         -140.5          67.78          72.81
    0.4664              -19.13          5.482          10.78          46.49         -2.595         -13.93         -12.22          5.334         -140.4          67.79          72.79
    0.4938              -19.14          5.491          10.78          46.49         -2.603         -13.92         -12.13          5.358         -140.3           67.8          72.76
    0.5213              -19.16            5.5          10.79          46.48         -2.612         -13.91         -12.04          5.385         -140.2          67.82          72.73
    0.5487              -19.18          5.509          10.79          46.47         -2.622          -13.9         -11.94          5.415         -140.1          67.83          72.69
